<svg width="48" height="48" viewBox="0 0 48 48" fill="none" xmlns="http://www.w3.org/2000/svg">
  <rect width="48" height="48" rx="12" fill="#7E22CE"/>
  <rect width="48" height="48" fill="url(#paint0_linear_3051_46907)"/>
  <g clip-path="url(#clip0_3051_46907)">
    <path d="M30.4839 35.376C30.0316 36.3813 29.4692 37.3658 28.795 38.2176C34.3886 36.3323 38.5063 31.2386 38.9596 25.125H36.9684C34.5385 25.125 32.5866 27.0646 32.1916 29.4622C31.8275 31.6723 31.245 33.6848 30.4839 35.376Z" fill="url(#paint1_linear_3051_46907)"/>
    <path d="M26.0798 25.125C28.6239 25.125 30.705 27.2474 30.2377 29.7482C29.2228 35.18 26.8127 39 24.0011 39C20.4435 39 17.5287 32.8838 17.2698 25.125H26.0798Z" fill="url(#paint2_linear_3051_46907)"/>
    <path d="M32.2433 18.8626C32.6154 21.2826 34.5763 23.25 37.0247 23.25H38.9827C38.6735 16.9704 34.5026 11.7061 28.795 9.78238C29.4692 10.6342 30.0316 11.6187 30.4839 12.624C31.2821 14.3977 31.8839 16.5248 32.2433 18.8626Z" fill="url(#paint3_linear_3051_46907)"/>
    <path d="M30.3129 18.6718C30.7384 21.16 28.6663 23.25 26.142 23.25H17.2594C17.4352 15.3142 20.3864 9 24.0011 9C26.8846 9 29.3458 13.0179 30.3129 18.6718Z" fill="url(#paint4_linear_3051_46907)"/>
    <path d="M15.384 23.25C15.4692 19.1938 16.243 15.4579 17.5183 12.624C17.9707 11.6187 18.533 10.6342 19.2072 9.78238C13.4997 11.7061 9.32875 16.9703 9.01953 23.25H15.384Z" fill="url(#paint5_linear_3051_46907)"/>
    <path d="M9.04266 25.125C9.49596 31.2386 13.6136 36.3323 19.2072 38.2176C18.533 37.3658 17.9707 36.3813 17.5183 35.376C16.2824 32.6296 15.5175 29.0362 15.3938 25.125H9.04266Z" fill="url(#paint6_linear_3051_46907)"/>
  </g>
  <defs>
    <linearGradient id="paint0_linear_3051_46907" x1="24" y1="5.96047e-07" x2="26" y2="48" gradientUnits="userSpaceOnUse">
      <stop stop-color="white" stop-opacity="0"/>
      <stop offset="1" stop-color="white" stop-opacity="0.12"/>
    </linearGradient>
    <linearGradient id="paint1_linear_3051_46907" x1="24.0011" y1="9" x2="24.0011" y2="39" gradientUnits="userSpaceOnUse">
      <stop stop-color="white" stop-opacity="0.8"/>
      <stop offset="1" stop-color="white" stop-opacity="0.5"/>
    </linearGradient>
    <linearGradient id="paint2_linear_3051_46907" x1="24.0011" y1="9" x2="24.0011" y2="39" gradientUnits="userSpaceOnUse">
      <stop stop-color="white" stop-opacity="0.8"/>
      <stop offset="1" stop-color="white" stop-opacity="0.5"/>
    </linearGradient>
    <linearGradient id="paint3_linear_3051_46907" x1="24.0011" y1="9" x2="24.0011" y2="39" gradientUnits="userSpaceOnUse">
      <stop stop-color="white" stop-opacity="0.8"/>
      <stop offset="1" stop-color="white" stop-opacity="0.5"/>
    </linearGradient>
    <linearGradient id="paint4_linear_3051_46907" x1="24.0011" y1="9" x2="24.0011" y2="39" gradientUnits="userSpaceOnUse">
      <stop stop-color="white" stop-opacity="0.8"/>
      <stop offset="1" stop-color="white" stop-opacity="0.5"/>
    </linearGradient>
    <linearGradient id="paint5_linear_3051_46907" x1="24.0011" y1="9" x2="24.0011" y2="39" gradientUnits="userSpaceOnUse">
      <stop stop-color="white" stop-opacity="0.8"/>
      <stop offset="1" stop-color="white" stop-opacity="0.5"/>
    </linearGradient>
    <linearGradient id="paint6_linear_3051_46907" x1="24.0011" y1="9" x2="24.0011" y2="39" gradientUnits="userSpaceOnUse">
      <stop stop-color="white" stop-opacity="0.8"/>
      <stop offset="1" stop-color="white" stop-opacity="0.5"/>
    </linearGradient>
    <clipPath id="clip0_3051_46907">
      <rect width="48" height="48" rx="12"/>
    </clipPath>
  </defs>
</svg>
